<?xml version="1.0" standalone="no"?>
<!DOCTYPE svg PUBLIC "-//W3C//DTD SVG 20010904//EN"
 "http://www.w3.org/TR/2001/REC-SVG-20010904/DTD/svg10.dtd">
<svg version="1.0" xmlns="http://www.w3.org/2000/svg"
 width="662.000000pt" height="549.000000pt" viewBox="0 0 662.000000 549.000000"
 preserveAspectRatio="xMidYMid meet">

<g transform="translate(0.000000,549.000000) scale(0.100000,-0.100000)"
fill="#000000" stroke="none">
<path d="M3732 5474 c-49 -34 -92 -190 -92 -332 0 -118 27 -220 93 -357 67
-137 160 -260 358 -475 162 -177 260 -294 285 -342 8 -16 14 -44 12 -61 -3
-27 -9 -34 -43 -45 -128 -43 -286 -51 -567 -28 -263 22 -434 28 -528 16 -47
-5 -148 -14 -225 -20 -452 -33 -576 -62 -935 -214 -308 -131 -380 -181 -725
-500 -82 -77 -190 -171 -240 -211 -119 -95 -160 -141 -251 -282 -42 -65 -92
-139 -112 -166 l-36 -47 -126 0 c-250 0 -365 -29 -429 -107 -41 -50 -46 -89
-21 -164 30 -89 100 -192 190 -279 94 -92 169 -138 249 -153 34 -6 61 -14 61
-17 0 -7 -101 -66 -170 -100 -159 -79 -206 -157 -311 -513 -28 -94 -73 -242
-102 -327 l-51 -155 0 -160 c-1 -176 9 -234 55 -326 66 -133 149 -141 265 -25
75 75 110 144 205 412 104 294 143 369 242 468 145 145 200 161 674 195 104 7
132 13 187 39 86 40 164 94 304 211 175 145 222 178 298 209 38 16 175 83 304
149 146 74 277 133 345 156 289 95 797 196 1145 228 118 10 132 10 255 -14 72
-14 231 -40 355 -57 394 -54 511 -84 763 -194 236 -104 399 -134 462 -84 56
44 70 129 34 201 -12 23 -60 81 -106 128 -47 48 -80 89 -75 93 16 10 130 -13
332 -66 175 -46 206 -52 300 -52 122 0 161 14 224 85 33 36 37 46 33 76 -9 53
-40 106 -74 126 -22 12 -75 21 -184 31 -147 13 -160 16 -299 69 -135 51 -199
72 -388 127 -106 30 -131 64 -98 129 39 75 142 131 286 156 110 19 164 41 202
81 63 67 82 191 54 335 -22 106 -38 143 -134 304 -158 266 -363 422 -709 541
l-112 39 -57 125 c-94 206 -239 489 -306 595 -34 55 -92 129 -128 165 -153
153 -436 238 -571 172 -25 -12 -52 -22 -61 -22 -9 0 -51 43 -93 96 -113 139
-165 172 -213 138z"/>
</g>
</svg>
