<?xml version="1.0" encoding="UTF-8" standalone="no"?>
<!-- Generator: Adobe Illustrator 16.0.0, SVG Export Plug-In . SVG Version: 6.00 Build 0)  -->

<svg
   xmlns:dc="http://purl.org/dc/elements/1.1/"
   xmlns:cc="http://creativecommons.org/ns#"
   xmlns:rdf="http://www.w3.org/1999/02/22-rdf-syntax-ns#"
   xmlns:svg="http://www.w3.org/2000/svg"
   xmlns="http://www.w3.org/2000/svg"
   xmlns:sodipodi="http://sodipodi.sourceforge.net/DTD/sodipodi-0.dtd"
   xmlns:inkscape="http://www.inkscape.org/namespaces/inkscape"
   version="1.1"
   id="レイヤー_1"
   x="0px"
   y="0px"
   width="128px"
   height="128px"
   viewBox="0 0 128 128"
   enable-background="new 0 0 128 128"
   xml:space="preserve"
   inkscape:version="0.91 r13725"
   sodipodi:docname="Emoji_hot_and_cold.svg"><metadata
     id="metadata27"><rdf:RDF><cc:Work
         rdf:about=""><dc:format>image/svg+xml</dc:format><dc:type
           rdf:resource="http://purl.org/dc/dcmitype/StillImage" /></cc:Work></rdf:RDF></metadata><defs
     id="defs25" /><sodipodi:namedview
     pagecolor="#ffffff"
     bordercolor="#666666"
     borderopacity="1"
     objecttolerance="10"
     gridtolerance="10"
     guidetolerance="10"
     inkscape:pageopacity="0"
     inkscape:pageshadow="2"
     inkscape:window-width="1600"
     inkscape:window-height="847"
     id="namedview23"
     showgrid="false"
     inkscape:zoom="3.6875"
     inkscape:cx="20.067797"
     inkscape:cy="61.773287"
     inkscape:window-x="-8"
     inkscape:window-y="-8"
     inkscape:window-maximized="1"
     inkscape:current-layer="レイヤー_1" /><g
     id="g4180"
     transform="matrix(0.70710678,-0.70710678,0.70710678,0.70710678,-26.640214,64.062222)"><path
       id="path5"
       d="m 64,30.339844 c -18.59,0 -33.660156,15.07039 -33.660156,33.65039 0,0.366779 0.01765,0.729801 0.0293,1.09375 l 67.261718,0 c 0.01164,-0.363949 0.0293,-0.726971 0.0293,-1.09375 0,-18.58 -15.070156,-33.65039 -33.660156,-33.65039 z"
       style="fill:#fcc21b"
       inkscape:connector-curvature="0" /><path
       d="m 56.76,24.21 0,0 14.49,0 c 0.67,0 1.29,-0.33 1.68,-0.88 0.38,-0.54 0.47,-1.25 0.24,-1.88 L 65.92,1.83 C 65.62,1.02 64.86,0.49 64,0.49 c -0.86,0 -1.62,0.54 -1.92,1.34 l -7.25,19.63 c -0.23,0.63 -0.14,1.33 0.24,1.88 0.39,0.55 1.02,0.87 1.69,0.87 z"
       id="path7"
       inkscape:connector-curvature="0"
       style="fill:#fcc21b" /><path
       d="m 97.26,40.99 c 0.38,0.39 0.91,0.6 1.44,0.6 0.12,0 0.24,-0.01 0.36,-0.03 0.66,-0.12 1.21,-0.55 1.5,-1.16 l 8.76,-19.01 c 0.36,-0.78 0.19,-1.69 -0.41,-2.3 -0.61,-0.61 -1.53,-0.77 -2.31,-0.42 l -19,8.77 c -0.61,0.28 -1.04,0.84 -1.16,1.5 -0.12,0.66 0.1,1.33 0.56,1.81 l 10.26,10.24 z"
       id="path9"
       inkscape:connector-curvature="0"
       style="fill:#fcc21b" /><path
       sodipodi:nodetypes="ssccccccs"
       inkscape:connector-curvature="0"
       id="path11"
       d="m 106.05859,54.726562 c -0.48843,-0.05391 -0.98593,0.06852 -1.39843,0.353516 -0.55,0.38 -0.8711,0.999922 -0.8711,1.669922 l 0.006,8.164 23.54688,0 c 0.1159,-0.259678 0.19726,-0.634929 0.19726,-0.933531 -0.02,-0.84 -0.54937,-1.600391 -1.35937,-1.900391 L 106.5392,54.839844 c -0.1575,-0.0575 -0.31765,-0.09531 -0.48047,-0.113282 z"
       style="fill:#fcc21b" /><path
       id="path19"
       d="m 21.935547,54.716797 c -0.161406,0.01797 -0.319609,0.05578 -0.474609,0.113281 l -19.6406255,7.25 c -0.8,0.29 -1.33984375,1.059922 -1.33984375,1.919922 0,0.434059 0.13968625,0.845146 0.3828125,1.185547 l 23.35351575,0 -0.0059,-8.435547 c 0,-0.67 -0.33086,-1.289687 -0.88086,-1.679688 -0.4125,-0.285 -0.910312,-0.407421 -1.394531,-0.353515 z"
       style="fill:#fcc21b"
       inkscape:connector-curvature="0" /><path
       d="m 27.45,40.4 c 0.28,0.61 0.84,1.04 1.5,1.16 0.12,0.02 0.24,0.03 0.36,0.03 0.54,0 1.06,-0.21 1.45,-0.6 L 41,30.74 c 0.47,-0.48 0.68,-1.15 0.56,-1.81 -0.12,-0.65 -0.55,-1.21 -1.16,-1.49 L 21.38,18.68 c -0.78,-0.36 -1.69,-0.19 -2.3,0.42 -0.61,0.61 -0.77,1.52 -0.41,2.3 l 8.78,19 z"
       id="path21"
       inkscape:connector-curvature="0"
       style="fill:#fcc21b" /><g
       id="g3"
       transform="matrix(1,0,0,1.004945,0.042,-0.14260394)"><path
         sodipodi:nodetypes="csccsccsccccsssssccsssscscccscccscssccsssscssscccccssscscssccsccssssccccscssccscc"
         style="fill:#40c0e7"
         inkscape:connector-curvature="0"
         id="path5-5"
         d="m 0.6,64.71 c 0,0 0.62,3.59 1.39,3.59 l 13.46,0 -10.57,10.56 c -0.26,0.27 -0.41,0.61 -0.41,0.99 0,0.36 0.14,0.72 0.41,0.98 L 9,84.95 c 0.27,0.28 0.63,0.41 0.98,0.41 0.35,0 0.71,-0.13 0.98,-0.41 l 16.66,-16.65 25.99,0 -18.38,18.38 -23.55,0 c -0.77,0 -1.39,0.62 -1.39,1.39 l 0,5.82 c 0,0.37 0.15,0.73 0.41,0.99 0.26,0.26 0.61,0.4 0.98,0.4 l 14.95,0 -9.52,9.51 c -0.54,0.55 -0.54,1.43 0,1.97 l 4.12,4.12 c 0.27,0.27 0.62,0.41 0.98,0.41 0.35,0 0.71,-0.14 0.98,-0.41 l 9.52,-9.52 0,14.95 c 0,0.37 0.14,0.72 0.41,0.98 0.26,0.26 0.61,0.41 0.98,0.41 l 5.82,-0.01 c 0.77,0 1.39,-0.62 1.39,-1.39 l 0,-23.53 18.37,-18.38 0,25.99 -16.65,16.65 c -0.54,0.54 -0.54,1.42 0,1.97 l 4.12,4.12 c 0.26,0.26 0.61,0.4 0.98,0.4 0.37,0 0.73,-0.14 0.98,-0.4 l 10.57,-10.57 0,13.46 c 0,0.77 0.62,1.39 1.39,1.39 l 5.82,0 c 0.77,0 1.39,-0.63 1.39,-1.39 l 0,-13.46 10.57,10.57 c 0.26,0.26 0.61,0.4 0.98,0.4 0.37,0 0.72,-0.14 0.98,-0.4 L 84.93,119 c 0.54,-0.55 0.54,-1.43 0,-1.97 l -16.63,-16.65 0,-26 18.38,18.38 0,23.55 c 0,0.77 0.62,1.39 1.39,1.39 l 5.82,0 c 0.37,0 0.73,-0.14 0.98,-0.4 0.26,-0.26 0.41,-0.61 0.41,-0.99 l 0,-14.94 9.52,9.52 c 0.27,0.27 0.62,0.41 0.98,0.41 0.36,0 0.71,-0.14 0.98,-0.41 l 4.11,-4.12 c 0.26,-0.26 0.41,-0.61 0.41,-0.98 0,-0.38 -0.14,-0.72 -0.41,-0.99 l -9.52,-9.51 14.94,0 c 0.77,0 1.39,-0.63 1.39,-1.39 l 0,-5.82 c 0,-0.77 -0.62,-1.39 -1.39,-1.39 l -23.52,0 -18.38,-18.39 25.99,0 16.65,16.65 c 0.27,0.28 0.63,0.41 0.98,0.41 0.35,0 0.71,-0.13 0.98,-0.41 l 4.12,-4.12 c 0.26,-0.26 0.41,-0.61 0.41,-0.98 0,-0.38 -0.15,-0.72 -0.41,-0.99 l -10.56,-10.56 13.46,0 c 0.77,0 1.39,-3.59 1.39,-3.59 z" /></g></g></svg>