<?xml version="1.0" standalone="no"?>
<!DOCTYPE svg PUBLIC "-//W3C//DTD SVG 20010904//EN"
 "http://www.w3.org/TR/2001/REC-SVG-20010904/DTD/svg10.dtd">
<svg version="1.0" xmlns="http://www.w3.org/2000/svg"
 width="666.000000pt" height="357.000000pt" viewBox="0 0 666.000000 357.000000"
 preserveAspectRatio="xMidYMid meet">

<g transform="translate(0.000000,357.000000) scale(0.100000,-0.100000)"
fill="#000000" stroke="none">
<path d="M2780 3219 c-564 -39 -1020 -162 -1331 -360 -538 -341 -941 -892
-1012 -1383 l-13 -89 -169 -2 c-171 -2 -218 -10 -242 -41 -17 -23 2 -58 46
-87 108 -72 207 -103 486 -156 205 -39 290 -63 374 -105 79 -41 99 -60 84 -84
-20 -32 -76 -55 -224 -93 -170 -43 -233 -73 -294 -141 -64 -71 -87 -128 -93
-227 -8 -145 32 -262 102 -295 31 -14 41 -15 103 -2 66 14 230 29 463 41 348
19 377 31 511 207 33 42 69 84 81 92 27 19 114 21 188 5 38 -8 128 -7 363 5
398 21 523 22 732 6 222 -16 775 -8 927 14 295 43 553 96 780 162 64 19 125
34 135 34 13 0 25 -18 42 -62 43 -114 150 -312 201 -375 52 -63 129 -127 190
-159 51 -26 151 -23 213 6 113 54 172 176 171 355 -1 175 -70 482 -186 834
l-60 184 23 18 c44 34 166 78 255 93 49 9 175 22 279 31 105 8 224 20 265 26
183 27 322 97 388 197 36 54 37 58 37 146 0 79 -4 98 -27 142 -37 70 -116 154
-175 187 -108 58 -281 73 -450 38 -50 -11 -187 -48 -305 -84 -229 -71 -345
-102 -420 -112 l-48 -7 -112 104 c-460 424 -737 625 -1085 786 -174 80 -350
130 -538 152 -105 12 -475 11 -655 -1z"/>
</g>
</svg>
